 <svg  version="1.0" xmlns="http://www.w3.org/2000/svg"  width="300.000000pt" height="300.000000pt" viewBox="0 0 300.000000 300.000000"  preserveAspectRatio="xMidYMid meet">  <g transform="translate(0.000000,300.000000) scale(0.050000,-0.050000)" fill="#9d3434" stroke="none"> <path d="M2650 5458 c-1707 -249 -2701 -2123 -1907 -3598 983 -1827 3619 -1787 4529 70 854 1743 -681 3810 -2622 3528z m548 -439 c325 -75 591 -347 660 -675 34 -161 29 -394 -9 -433 -73 -72 -86 -35 -93 279 -9 340 -139 553 -422 687 -184 88 -302 105 -161 24 285 -164 382 -475 237 -761 -41 -81 -52 -126 -44 -183 10 -76 9 -77 -73 -97 -46 -11 -114 -29 -152 -39 -47 -13 -77 -13 -95 2 -21 18 -26 -32 -26 -273 l0 -294 -65 9 c-36 5 -81 16 -100 24 -27 12 -35 6 -35 -27 0 -32 31 -58 130 -106 174 -86 166 -96 -80 -96 -173 0 -210 -5 -210 -30 0 -23 25 -30 108 -30 140 0 181 -15 150 -53 -19 -22 -15 -38 19 -74 58 -61 62 -269 7 -320 -182 -164 -672 199 -716 532 -12 85 -20 97 -74 111 -108 28 -132 86 -154 373 -21 272 -5 351 70 351 24 0 30 34 30 176 0 639 501 1060 1098 923z m-1473 -704 l-265 -264 -140 139 c-175 173 -185 134 115 435 l255 255 150 -150 150 -150 -265 -265z m2532 458 l45 -48 -43 -72 c-96 -163 55 -329 224 -244 63 31 66 31 116 -20 l51 -51 -62 -56 c-283 -255 -692 139 -479 461 60 89 87 95 148 30z m-2629 -970 c102 -58 140 -130 149 -284 4 -76 16 -139 26 -139 10 0 27 -23 37 -51 23 -60 -22 -189 -66 -189 -15 0 -49 -33 -76 -73 -72 -110 -147 -157 -248 -157 -101 0 -176 47 -248 157 -27 40 -60 73 -75 73 -63 0 -97 210 -37 233 22 8 30 42 30 124 0 286 263 444 508 306z m3055 5 c109 -55 157 -139 157 -276 0 -100 8 -133 40 -162 72 -65 15 -250 -77 -250 -10 0 -24 -22 -31 -49 -52 -209 -374 -212 -510 -4 -27 40 -60 73 -75 73 -70 0 -91 180 -27 235 32 27 40 59 40 150 0 268 237 407 483 283z m-925 -716 c-24 -128 -89 -256 -171 -334 l-71 -68 61 98 c64 102 112 228 134 358 10 57 20 70 39 54 18 -15 20 -45 8 -108z m-2468 -252 c43 -22 91 -40 107 -40 23 0 23 -7 -2 -45 -22 -34 -24 -54 -8 -79 21 -33 16 -55 -42 -211 -7 -18 22 -25 103 -25 62 0 112 4 112 8 0 5 -18 51 -41 103 -36 86 -37 98 -9 129 28 31 28 37 1 60 -38 31 -40 60 -5 60 14 0 57 16 96 36 l71 36 203 -95 c239 -111 249 -134 116 -251 -222 -196 -459 -266 -896 -266 l-297 0 5 213 c5 164 13 216 36 229 17 9 107 52 200 95 94 44 170 80 171 81 0 1 36 -16 79 -38z m3164 -40 c35 0 33 -29 -4 -60 -25 -21 -25 -30 -1 -64 24 -35 23 -52 -11 -130 -21 -49 -38 -93 -38 -98 0 -4 50 -8 110 -8 61 0 110 4 110 8 0 5 -18 51 -41 103 -36 85 -37 98 -10 128 27 30 27 38 -1 77 -28 40 -27 44 6 45 20 0 67 17 106 38 68 36 71 36 144 -1 41 -21 122 -57 180 -79 171 -68 176 -76 176 -302 l0 -197 -295 0 c-451 1 -688 69 -910 261 -141 122 -131 143 109 255 l204 96 70 -36 c39 -20 82 -36 96 -36z m-1934 -320 c340 -252 559 -256 907 -18 203 138 217 138 283 -7 l48 -105 -186 -670 c-102 -369 -199 -719 -215 -779 -45 -165 -65 -144 -115 124 -25 135 -54 279 -65 320 l-19 75 -176 0 -177 0 -61 -312 c-57 -292 -72 -347 -92 -326 -4 4 -103 358 -220 785 l-212 777 37 83 c78 176 93 179 263 53z m-373 -245 c24 -90 11 -112 -137 -223 -165 -124 -160 -117 -127 -170 19 -30 15 -49 -22 -101 l-46 -64 -57 55 c-55 53 -56 58 -26 103 50 78 31 71 -263 -95 l-279 -157 -55 62 c-69 79 -110 48 476 364 561 303 520 286 536 226z m2333 -290 c465 -249 437 -226 367 -301 l-57 -61 -279 157 c-302 170 -304 171 -268 92 21 -46 18 -59 -25 -104 l-48 -51 -56 63 c-52 59 -54 67 -25 98 44 49 47 44 -128 180 -156 120 -158 123 -140 187 11 36 19 67 19 70 0 9 224 -107 640 -330z"/> <path d="M2490 3831 c-55 -27 -111 -50 -125 -50 -43 -1 -26 -29 46 -75 50 -32 87 -41 129 -33 33 7 101 1 153 -12 100 -25 207 37 207 120 0 31 -14 36 -270 91 -22 5 -85 -14 -140 -41z"/> <path d="M1609 4695 l-55 -65 52 -6 c61 -8 134 -90 134 -151 0 -37 9 -33 75 33 l75 76 -94 89 c-112 106 -117 107 -187 24z"/> <path d="M1513 4547 c-22 -22 -15 -117 11 -143 53 -53 156 -15 156 59 0 69 -120 130 -167 84z"/> <path d="M1341 4431 l-69 -71 98 -100 98 -100 67 65 67 65 -57 24 c-69 28 -103 66 -122 136 l-14 52 -68 -71z"/> <path d="M1340 3190 c-14 -16 -43 -30 -65 -30 -34 0 -36 -5 -14 -32 19 -23 46 -28 98 -20 39 7 80 12 91 12 11 0 52 -5 91 -12 52 -8 79 -3 98 20 22 27 20 32 -14 32 -22 0 -51 14 -65 30 -15 18 -59 30 -110 30 -51 0 -95 -12 -110 -30z"/> <path d="M4480 3643 c0 -20 -23 -47 -50 -59 -71 -33 -103 -110 -74 -174 13 -28 46 -61 74 -74 41 -18 50 -37 50 -99 0 -85 -10 -92 -62 -45 -20 18 -45 26 -57 19 -33 -21 12 -89 70 -103 27 -7 49 -25 49 -40 0 -15 14 -28 30 -28 17 0 30 14 30 30 0 17 12 30 27 30 45 0 93 69 93 133 0 60 -51 127 -97 127 -14 0 -23 35 -23 93 0 92 0 93 40 57 31 -28 47 -31 64 -14 27 27 -6 76 -64 94 -19 6 -40 29 -46 51 -13 49 -54 51 -54 2z m0 -195 c0 -63 -4 -69 -30 -48 -31 26 -40 83 -17 107 30 30 47 9 47 -59z m116 -235 c-11 -75 -56 -61 -56 18 0 64 4 71 31 48 17 -14 28 -44 25 -66z"/> <path d="M2864 2120 c-167 -75 -207 -286 -83 -428 32 -37 59 -77 59 -90 0 -41 293 -29 308 13 6 19 34 66 62 103 171 232 -80 523 -346 402z"/> </g> </svg> 